<?xml version="1.0" encoding="UTF-8"?><svg xmlns="http://www.w3.org/2000/svg" xmlns:xlink="http://www.w3.org/1999/xlink" viewBox="0 0 5206 2631.04"><defs><style>.cls-1{fill:url(#linear-gradient-2);}.cls-2{fill:#f4f4f4;}.cls-3{fill:#fff;}.cls-4{fill:#dbdbdb;}.cls-5{fill:#a0a0a0;}.cls-6{fill:url(#linear-gradient-6);}.cls-7{isolation:isolate;}.cls-8{fill:url(#radial-gradient);}.cls-8,.cls-9{mix-blend-mode:darken;}.cls-10{fill:url(#linear-gradient-11);}.cls-11{fill:url(#linear-gradient-10);}.cls-12{fill:#f9f7f7;}.cls-13{fill:#eaeaea;}.cls-14{fill:#babab9;}.cls-15{fill:url(#linear-gradient-5);}.cls-16{fill:url(#linear-gradient-7);}.cls-17{fill:url(#linear-gradient-9);}.cls-18{fill:url(#linear-gradient-3);}.cls-19{fill:#a8a8a8;}.cls-20{fill:url(#linear-gradient);}.cls-9{fill:url(#radial-gradient-2);}.cls-21{fill:url(#linear-gradient-4);}.cls-22{fill:url(#linear-gradient-8);}</style><linearGradient id="linear-gradient" x1="1954.91" y1="1314.5" x2="1954.91" y2="790.45" gradientUnits="userSpaceOnUse"><stop offset="0" stop-color="#f2f2f2"/><stop offset=".27" stop-color="#eee"/><stop offset=".53" stop-color="#e2e2e2"/><stop offset=".79" stop-color="#cfcfce"/><stop offset="1" stop-color="#babab9"/></linearGradient><linearGradient id="linear-gradient-2" x1="3008.92" y1="1077.58" x2="3462.92" y2="1077.58" gradientUnits="userSpaceOnUse"><stop offset="0" stop-color="#a1a1a1"/><stop offset=".06" stop-color="#b2b2b2"/><stop offset=".19" stop-color="#d3d3d3"/><stop offset=".31" stop-color="#ebebeb"/><stop offset=".43" stop-color="#fafafa"/><stop offset=".52" stop-color="#fff"/><stop offset=".64" stop-color="#fbfbfb"/><stop offset=".75" stop-color="#f0f0f0"/><stop offset=".86" stop-color="#dedede"/><stop offset=".96" stop-color="#c5c5c4"/><stop offset="1" stop-color="#babab9"/></linearGradient><linearGradient id="linear-gradient-3" x1="3244.91" y1="1317.06" x2="3244.91" y2="845.89" gradientUnits="userSpaceOnUse"><stop offset="0" stop-color="#f2f2f2"/><stop offset=".31" stop-color="#eee"/><stop offset=".55" stop-color="#e5e5e5"/><stop offset=".77" stop-color="#d5d5d4"/><stop offset=".96" stop-color="#bebebd"/><stop offset="1" stop-color="#babab9"/></linearGradient><radialGradient id="radial-gradient" cx="4208.43" cy="1493.59" fx="4208.43" fy="1493.59" r="244.05" gradientTransform="translate(1073.89 416.16) scale(.49)" gradientUnits="userSpaceOnUse"><stop offset="0" stop-color="#8a8a8a"/><stop offset=".09" stop-color="#a0a0a0"/><stop offset=".24" stop-color="#bdbdbd"/><stop offset=".4" stop-color="#d4d4d4"/><stop offset=".56" stop-color="#e5e5e5"/><stop offset=".75" stop-color="#eee"/><stop offset="1" stop-color="#f2f2f2"/></radialGradient><radialGradient id="radial-gradient-2" cx="4604.18" cy="1476.92" fx="4604.18" fy="1476.92" r="254.25" xlink:href="#radial-gradient"/><linearGradient id="linear-gradient-4" x1="663.57" y1="2621.02" x2="663.57" y2="2094.62" gradientUnits="userSpaceOnUse"><stop offset="0" stop-color="#fff"/><stop offset=".24" stop-color="#fbfbfb"/><stop offset=".48" stop-color="#efefef"/><stop offset=".71" stop-color="#dcdcdb"/><stop offset=".95" stop-color="#c1c1c0"/><stop offset="1" stop-color="#babab9"/></linearGradient><linearGradient id="linear-gradient-5" x1="466.98" y1="1086.58" x2="901.43" y2="1086.58" xlink:href="#linear-gradient-2"/><linearGradient id="linear-gradient-6" x1="690.21" y1="1315.9" x2="690.21" y2="864.71" xlink:href="#linear-gradient-4"/><linearGradient id="linear-gradient-7" x1="1978.43" y1="2601.67" x2="1978.43" y2="2146.41" xlink:href="#linear-gradient-4"/><linearGradient id="linear-gradient-8" x1="4301.15" y1="2379.82" x2="4736.33" y2="2379.82" xlink:href="#linear-gradient-2"/><linearGradient id="linear-gradient-9" x1="4519.29" y1="2617.29" x2="4519.29" y2="2155.23" xlink:href="#linear-gradient-4"/><linearGradient id="linear-gradient-10" x1="4499.57" y1="1319.63" x2="4499.57" y2="804.15" xlink:href="#linear-gradient-4"/><linearGradient id="linear-gradient-11" x1="3216.55" y1="2620.39" x2="3216.55" y2="2104.91" xlink:href="#linear-gradient-4"/></defs><g class="cls-7"><g id="Capa_2"><g id="Layer_1"><rect class="cls-3" width="5206" height="2631.04"/><rect class="cls-4" x="1336.82" y="40.52" width="1250.28" height="1249.24"/><ellipse class="cls-19" cx="1975.34" cy="614.08" rx="334.97" ry="317.78"/><path class="cls-20" d="m2107.83,850.09s-57.68,204.29,18.51,273.24c15.83,14.33,71.09,33.1,71.09,33.1l4.14,15.68s-.47-23.31,14.23-8.06c14.7,15.25,58.79,22.87,58.79,22.87l82.67,45.75s51.44,28.59,51.44,40.03v11.44h-907.58l84.51-74.34,64.3-15.25s22.05-26.69,33.07-22.87l11.02,3.81,19.79-18.65s84.32-38.77,104.06-70.21c37.16-59.21,18.54-209.81,18.54-209.81l271.41-26.73Z"/><path class="cls-2" d="m1777.41,811.31s-28.83,49.45,93.7,163.13c10.96,10.17,35.61,41.16,47.4,45.68,43.02,16.49,66.4,5.39,90.47-1.75,19.26-5.71,45.23-35.93,45.23-35.93,0,0,101.96-78.29,103.8-118.21,1.84-39.92,14.4-52.93,14.4-52.93,0,0,2.78-5.29,13.05-.38,17.9,8.56,28.4-25.85,31.71-63.74,2.53-28.97-13.52-66.04-31.9-64.3-18.37,1.74-10.94,4.69-10.94,4.69-.23-2.05,1.48-36.43-5.41-63.26-10.44-40.69,5.92-139.89-38.17-165.92-44.09-26.03-14.12-37.18-77.93-55.85-27.26-7.97-129.59,13.71-164.49,1.56-34.91-12.15-92.04,115.82-103.81,139.68-14.45,29.3-8.94,149.51-7.1,170.34l1.84,20.83s-12.86-55.53-23.88-59.01c-11.02-3.47-31.23-3.47-27.56,38.18,3.67,41.65-7.06,14.45,23.88,86.77,18.12,42.34,25.72,10.41,25.72,10.41Z"/><path class="cls-19" d="m1811.93,1084.26c-18.67-18.57-35.59-36.88-51.03-54.9,28.95,35.09,51.03,54.9,51.03,54.9Z"/><path class="cls-19" d="m1802.62,1044.44c7.71,5.24,13.06,7.34,13.06,7.34-4.5-2.27-8.85-4.73-13.06-7.34Z"/><path class="cls-19" d="m2354.24,613.87l-.29.49c-.73-22.86-4.43-47.33-11.9-73.52-99.4-348.48-231.95-336.01-251.31-338.54-19.35-2.53-69.3,31.11-69.3,31.11,0,0-166.52-119.56-329.54,140.03-53,84.39-81.2,155.67-93.11,215.83-4.55,11.11-9.37,23.26-14.42,36.52-11.9,31.28-5.3,46.85,8.23,53.93,1.19,15.88,3.63,30.67,7.03,44.46.06,7.84.41,15.94,1.1,24.28-8.25,17.61-15.06,40.41-1.05,53.77-3.12,33.53,10.75,54.92,34.16,64.44,20.45,41.67,51.92,85.18,99,128.15,8.72,11.38,18.07,22.9,28.04,34.53-7.67-9.3-15.82-19.67-24.18-31.04,23.87,21.38,51.64,42.62,83.9,63.41-1.94-1.27-48.91-32.22-98-85.67-8.13-12.16-18.46-34.95-21.46-74.38,13.44,40.06,43.37,106.66,101.47,142.76-13.24-9-33.47-27.28-45.7-60.22,6.42,1.65,13.87,2.19,22.5,1.35,2.98-.29,28.76-11.24,61.26-37.48,0,0-54.32,36.77-87.91,23.23-5.74-21-8.24-47.02-4.67-79.09,2.01-1.06,3.88-2.17,5.62-3.33,64.31,8.28,105.3-58.01,181.98-301.63,78.68-249.96,124.67-175.27,124.67-175.27,27.9,55.28,59.4,108.94,105.38,147.58,0,0-38.22-38.9-65.97-83.02,36.22,44.4,51.9,17.16,112.85,150.55,79.04,173-66.71,258.76-66.71,258.76,0,0,26.7-9.52,60.97-30.4-3.92,16.69-11.43,36.84-20.15,51.59-11.28-6.49-20.25-14.79-22.79-17.88,2.21,3.16,9.55,12.98,20.83,21.07-.92,1.44-1.85,2.82-2.78,4.11-16.25,22.49-35.01-6.25-35.01-6.25,5,13.74,17.5,17.49,17.5,17.49,7.51,5.22,16.14-.74,24.77-12.38,7.68,4.71,16.35,7.99,25.37,8.63-1.01,2.7-2.07,5.25-3.18,7.62,1.36-2.24,2.77-4.76,4.19-7.58,38.39,1.64,48.78-70.17,51.58-107.73,2.68-3.85,5.26-7.61,7.77-11.31,19.52-19.23,37.77-42.08,51.83-68.85-9.37,27.88-19.25,49.53-19.25,49.53,14.04-28.05,19.86-45.33,31.91-77.98-9.85,32.46-22.47,60.13-22.47,60.13,47.51-94.94,37.2-151.83,37.2-151.83Zm-762.12,57.81c-14.06-4.89-7.63-36.28,4.62-71.15-4.34,25.78-5.64,49.45-4.62,71.15Zm91.6,213.45c-6.3-1.94-12.09-4.44-17.29-7.27-.89-2.04-1.76-4.11-2.64-6.17,5.27-.14,10.78-.75,16.51-1.85.99,4.81,2.13,9.94,3.42,15.29Zm-82.28-96.09c-2.17-6.49-1.24-15.18,1.1-24.09,2.59,19.06,2.31,4.99-1.1,24.09Zm7.02,18.87c7.08,3.05-1.05-4.24,15.06,35.67.4,2.1.95,4.17,1.61,6.22-13.49-7.38-17.18-24.21-16.67-41.88Zm16.78,8.75c-.57-1.77-1.13-3.54-1.67-5.32,1.16.08,2.35.13,3.56.15-.71,1.72-1.35,3.44-1.89,5.16Zm-4.74-15.98c-2.59-9.63-4.77-19.47-6.46-29.52,1.68-6.69-1.79-3.68,15.31,24.65.58,2.06,1.18,4.14,1.79,6.23-4.23-.08-7.84-.56-10.64-1.37Zm21.4,56.02c-.48-.78-.92-1.54-1.29-2.29-.43-.4-.82-.8-1.22-1.2-2.86-6.34-5.56-12.8-8.09-19.37-.06-5.85,1.49-11.96,4.08-18.05,1.7,5.2,3.53,10.47,5.48,15.8.63,3.47,1.81,6.61,3.52,9.38,2.3,5.93,4.72,11.93,7.35,18.01-3.6-.55-6.9-1.32-9.84-2.28Zm7.06-32.46c5.44,6.97,10.9,13.36,16.21,19.22-12.08-1.05-16.23-8.91-16.21-19.22Zm27.29,30.99c1.87,1.92,1.44,1.14,1.88,3.55-6.8,1.05-13.31,1.3-19.29.94-1.16-2.94-2.3-5.9-3.42-8.88,5.56,2.79,12.58,4.3,20.82,4.39Zm-18.42,17.34c-1.8-1.26-1.55-.95-.42-.9.14.3.28.6.42.9Zm-2.04,12.89c3.38,1.96,7.03,3.76,10.91,5.4,10.65,20.99,23.33,42.73,38.28,65.11-17.42-20.87-34.45-44.48-49.18-70.51Zm63.55,87.05c-10.76-11.92-35.54-57.48-45.76-78.98,4.16,1.44,8.58,2.69,13.23,3.76,6.99,25.72,17.43,54.28,32.53,75.22Zm517.18-136.92c3.04-2.24,6.09-4.57,9.16-6.98.63,3.54,1.83.7-10.49,20.42.51-4.3.95-8.78,1.34-13.44Zm-44.78,74.14c11.39-16.73,22.63-42.44,31.2-64.57,2.97-2,5.97-4.07,8.99-6.23-.64,5.29-1.51,12.02-2.65,19.51-5.42,8.59-6.04,9.26-.15,1-2.66,17.44-6.69,38.82-12.27,56.01-8.3.84-17.1-1.78-25.12-5.71Zm52.76-21.6c-5.91,17.72-15.33,25.28-25.69,27.05,6.31-14.42,12.53-35.04,16.11-63.93,4.08-5.83,7.98-11.49,11.69-16.98,2.6,17.34,3.38,37.4-2.11,53.86Zm22.89-76.41c.15-2.22-.34-1.26,2.38-3.83-.82,1.32-1.61,2.6-2.38,3.83Z"/><path class="cls-19" d="m2163.96,889.18c-.46-.66-.71-1.05-.71-1.05.07.2.32.57.71,1.05Z"/><path class="cls-19" d="m2198.26,945.6c4.99-1.99,9.37-7.92,13.21-16.11-7.28,11.99-13.21,16.11-13.21,16.11Z"/><rect class="cls-4" x="2620.64" y="40.52" width="1248.53" height="1249.24"/><path class="cls-1" d="m3462.92,1162.85c-150.37-53.27-302.43-51.45-454.01,0v-142.23c152.59-39.01,303.84-36.46,454.01,0v142.23Z"/><path class="cls-18" d="m3399.08,899.51c-11.35-.06,9.1,144.1,19.6,178.69,14.01,46.13,101.4,81.9,191.2,109.13,41.2,12.49,117.36,67.46,127.9,88.79,6.05,12.24,5.69,13.65,5.69,13.65h-997.13l62.79-60.34c19.36-18.6,43.18-31.91,69.16-38.64l30.61-7.93,37.36-17.64c7.19-3.39,14-7.53,20.34-12.33l76.77-58.23s24.08-30.09,22.08-75.58c-2.01-45.5-2.01-119.54-2.01-119.54h335.63Z"/><polygon class="cls-19" points="3178.74 1288.51 3294.23 1288.51 3260.52 1246.04 3213.7 1246.04 3178.74 1288.51"/><path class="cls-19" d="m3225.56,1145.47l-63.68,63.71s12.7,52.81,41.2,47.47c2.7-.51-.21,2.46,12.75,8.26,13.72,6.15,31-.2,44-2.01,16.5-2.29,31.02-12.06,39.41-26.46l15.59-26.64-60.55-61.84-28.72-2.5Z"/><path class="cls-8" d="m2978.97,1144.85s104.88,86.2,178.54,94.94c5.92.7,21.23,1.25,23.72-2.5l57.71-89.32-215.03-70.58-44.95,67.46Z"/><path class="cls-9" d="m3499.79,1146.1s-104.88,86.2-178.54,94.94c-5.92.7-21.22,1.25-23.72-2.5l-57.71-89.32,215.03-70.58,44.95,67.46Z"/><path class="cls-13" d="m3001.25,766.99s31.82,155.9,111.83,204.3c124.92,75.57,210.7,11.47,210.7,11.47,0,0,99.67-89.26,116.01-141.87,14.6-47.01,19.73-73.89,19.73-73.89,0,0,13.16,0,21.93-10.87,8.77-10.87,10.96-80.41,17.54-99.97,6.58-19.56,10.96-52.16-10.96-49.99-21.93,2.17-32.89,39.12-32.89,39.12,0,0,41.4-142.14,28.25-181.26-13.16-39.12-26.05-44.76-78.68-77.36-52.62-32.6-78.82-58.43-111.1-47.56-32.28,10.87-183.07,17.71-224.74,2.5-41.66-15.21-80.82,112.31-87.4,144.91-6.58,32.6,17.58,132.7,19.77,158.78l2.2,26.08s-15.35-69.55-28.5-73.89c-13.16-4.35-37.28-4.35-32.89,47.81,4.39,52.16,9.71,11.78,28.51,108.67,10.96,56.51,30.7,13.04,30.7,13.04Z"/><path class="cls-12" d="m3008.66,1021.67s-19.12,112.37-31.36,115.54c-12.24,3.17,135.84,76.03,190.28,83.04,0,0,32.71-56.57,69.35-73.68,0,0-220.72-74.85-228.27-124.91Z"/><path class="cls-12" d="m3463.33,1020.62s20.1,112.16,32.24,115.2c12.14,3.04-133.51,77.49-187.26,85.08,0,0-32.94-56.22-69.36-72.93,0,0,217.45-77.21,224.39-127.35Z"/><path class="cls-19" d="m3002.66,637.39s-18.24-57.31-14.18-85.97c4.05-28.66-16.21-145.32,52.68-165.79,68.89-20.47,125.62,2.05,143.85-2.05,18.24-4.09,89.6-37.28,115.49-30.7,29.31,7.44,129.67,88.01,153.99,88.01,0,0,10.33,60.35,16.41,70.59,6.08,10.23-6.28,93.16-6.28,105.44s0,18.42,4.05,30.7c0,0,6.08-22.51,8.1-36.84,2.03-14.33,26.34-51.17,26.34-51.17,0,0,20.26-122.81,16.21-130.99-4.05-8.19,20.26-18.42-16.21-85.97-36.47-67.54-198.56-165.79-265.42-173.98-66.86-8.19-160.06,0-198.56,106.43,0,0-101.31,22.51-115.49,128.95-14.18,106.43,64.84,182.16,64.84,214.91s10.13,51.17,10.13,51.17l4.05-32.75Z"/><path class="cls-19" d="m3462.06,641.01c1.82,5.01-16.84-3.04-16.84-3.04,0,0-22.72,66.93-34.93,70.27-12.21,3.34-131.57,4.16-139.75-6.12-5.98-7.53-14.72-35.47-18.96-49.91-18.04-10.93-34.32-4.78-45.8,3.62-4.52,15.07-12.37,39.34-17.89,46.28-8.18,10.28-127.55,9.46-139.75,6.12-12.21-3.34-34.93-70.27-34.93-70.27,0,0-18.67,8.05-16.85,3.04,3.01-8.29-4.42-24.04-10.3-34.03,10.06,9.13,24.35,7.28,24.35,7.28,0,0,5.74-11.03,24.37-11.63,47.86-1.52,133.16-8.11,181.46,12.67,15.43,2.16,18.03,1.54,25.96,0,48.32-20.78,133.61-14.19,181.46-12.67,18.64.6,24.38,11.63,24.38,11.63,0,0,14.27,1.85,24.33-7.28-5.88,9.99-13.31,25.73-10.3,34.03Z"/><path class="cls-13" d="m3184.98,617.67s-58.68-16.24-142.33-2.5c-39.44,6.48,7.49,81.2,8.74,82.45,1.25,1.25,68.67,11.24,126.1-1.25,18.14-3.94,24.97-79.95,7.49-78.7Z"/><path class="cls-13" d="m3274.26,617.67s58.68-16.24,142.33-2.5c39.44,6.48-7.49,81.2-8.74,82.45-1.25,1.25-68.67,11.24-126.1-1.25-18.14-3.94-24.97-79.95-7.49-78.7Z"/><path class="cls-19" d="m3470.47,599.67c-1.57,3-3.5,5.4-5.61,7.31,4.38-7.43,7.89-11.68,5.61-7.31Z"/><path class="cls-19" d="m2978.55,606.98c-2.11-1.91-4.03-4.31-5.61-7.31-2.28-4.37,1.22-.12,5.61,7.31Z"/><rect class="cls-4" x="54.04" y="1341.28" width="1251.06" height="1248.2"/><ellipse class="cls-5" cx="666.49" cy="2091.29" rx="356.53" ry="356.31"/><path class="cls-21" d="m817.13,2154.52s-57.93,205.21,18.59,274.47c15.9,14.39,71.4,33.25,71.4,33.25l4.16,15.75s-.47-23.41,14.29-8.09c14.76,15.32,59.04,22.98,59.04,22.98l83.03,45.95s51.66,28.72,51.66,40.21v11.49H207.84l84.87-74.67,64.58-15.32s22.14-26.8,33.21-22.98l11.07,3.83,19.87-18.74s84.69-38.95,104.5-70.53c37.32-59.47,18.62-210.75,18.62-210.75l272.57-26.85Z"/><path class="cls-2" d="m485.3,2115.57s-28.96,49.67,94.1,163.87c11.01,10.22,35.76,41.34,47.6,45.88,43.2,16.57,66.69,5.41,90.86-1.76,19.34-5.74,45.43-36.09,45.43-36.09,0,0,102.4-78.64,104.24-118.74,1.85-40.09,14.46-53.16,14.46-53.16,0,0,2.8-5.31,13.1-.38,17.98,8.6,28.52-25.97,31.85-64.03,2.54-29.1-13.58-66.33-32.03-64.59-18.45,1.74-10.99,4.71-10.99,4.71-.23-2.06,1.49-36.59-5.43-63.55-10.49-40.87-9.41-91.08-53.69-117.23-44.28-26.15-85.72-73.09-112.88-64.37-27.16,8.72-99.31,59.14-134.36,46.94-35.06-12.2-58.29,47.5-70.11,71.47-14.51,29.43-23.99,132.49-22.14,153.41l1.85,20.92s-12.92-55.78-23.99-59.27c-11.07-3.49-31.37-3.49-27.68,38.35,3.69,41.84-7.09,14.52,23.99,87.16,18.2,42.53,25.83,10.46,25.83,10.46Z"/><path class="cls-19" d="m852.25,2104.98s.5,2.06,1.02,5.56c1.51,10.3,3.12,33.08-7.73,52.68-14.54,26.26-48.08,60.52-48.08,60.52,0,0-48.08,130.18,0,164.44,48.08,34.26,131.95,61.67,131.95,61.67,0,0-3.35-61.67,19.01-84.5,22.36-22.84,52.56-42.25,52.56-42.25,0,0,41.38-43.39,20.13-52.53-21.25-9.14,12.3-21.7,12.3-21.7l-23.48-17.13s35.78-7.99,23.48-25.12c-12.3-17.13,35.78-74.23,35.78-74.23,0,0,21.25-26.26-14.54-86.79-35.78-60.52-22.36-115.34-22.36-115.34,0,0-12.3-46.82-29.07-100.49-16.77-53.67-54.79-115.34-88.34-141.6-33.55-26.26-64.3-85.65-117.97-92.5-18.86-2.41-54.23,4.57-54.23,4.57,0,0-92.92-44.85-150.4-23.41-57.48,21.44-147.05,78.22-218.62,167.3-71.57,89.07-25.72,122.19-25.72,122.19,0,0-16.77,5.71-23.48-27.41,0,0-17.47,34.28,0,61.67,0,0-90.58,99.35-64.86,150.74,25.72,51.39,23.48,18.27,23.48,18.27,0,0-61.4,59.38-44.73,105.06,5.04,13.81-4.85,23.14-.98,31.02,6.78,13.78,18.92,24.01,33.4,28.36l16.2,46.62c17.18,49.43,53.11,89.73,99.7,111.8l121.17,57.41s-16.77-39.97,11.18-84.5c27.96-44.54,44.52-110.42,22.87-136.55-36.12-43.59-75.97-96.52-70.95-150.08,2.44-26.11-10.43-36.66-9.51-67.66,1.12-37.62,19.63,6.86,22.31-6,5.02-24.09,7.12-68.77,19.62-80.51,41.38-38.83,24.43-10.3,71.57-52.53,63.74-57.1,15.66-7.99,63.74-57.1,45.37-46.34,92.81-68.52,92.81-68.52,0,0,22.28,45.74,91.7,66.23,41.13,12.14-24.27,170.23,31.31,173.58,2.43.15,4.41-6.94,11.91-10,29.42-12.01,34.06,16.43,37.82,49.14,2.45,21.27-1.48,42.81-11.31,61.73-.13.26-.27.51-.4.77-8.05,15.37-41.46,7.36-40.26,17.13Z"/><rect class="cls-4" x="54.04" y="40.52" width="1249.24" height="1248.73"/><path class="cls-15" d="m901.43,1168.23c-143.89-51.01-289.4-49.26-434.46,0v-136.2c146.02-37.36,290.76-34.91,434.46,0v136.2Z"/><path class="cls-6" d="m840.34,916.05c-10.86-.06,8.71,138,18.76,171.11,22.91,75.5,303.29,139.43,305.37,189.52.54,13.06,0,13.07,0,13.07H215.71l88.34-84.96,67.22-17.43,35.75-16.89c6.88-3.25,13.4-7.21,19.46-11.81l73.47-55.76s23.05-28.81,21.13-72.38-1.92-114.48-1.92-114.48h321.18Z"/><path class="cls-19" d="m458.64,703.35s-50.28-93.71-59.12-108.27,6.63-64.52,0-74.92c-6.63-10.41-8.84-162.33,44.2-208.12,53.04-45.79,83.97-58.27,83.97-58.27,13.13-11.33,100.51-43.24,137.24-37.46,110.47,17.39,92.09,11.69,112.48,10.41,46.9,7.56,82.71,20.19,77.17,50.92,17.66-9.09,31.7-9.19,46.59,1.11-4.11,8.69-4.63,14.4,0,18.73,0,0,57.46,2.08,57.46,145.68s-10.73,187.72-26.52,195.63c-15.79,7.91-44.9,36.03-44.9,36.03,0,0,7.33-250.31-63.38-248.31-70.72,2-122.55,37.61-293.91,0-37.57-8.25-91.15,226.9-71.26,276.85Z"/><path class="cls-2" d="m452.85,791.36s30.45,149.29,107.01,195.63c119.54,72.36,201.63,10.99,201.63,10.99,0,0,95.38-85.47,111.02-135.86,13.97-45.01,18.88-70.76,18.88-70.76,0,0,12.59,0,20.98-10.41,8.39-10.41,10.49-77,16.79-95.74s10.49-49.95-10.49-47.87c-20.98,2.08-31.47,37.46-31.47,37.46,0,0,19.05-62.95,6.46-100.41-12.59-37.46-4.36-116.04-54.72-147.26-50.36-31.22-114.48-20.81-145.37-10.41-30.89,10.41-95.93,4.16-135.8-10.41-39.87-14.57-84.42,51.67-90.71,82.89-6.29,31.22-16.31,160.61-14.2,185.58l2.1,24.97s-14.69-66.6-27.28-70.76c-12.59-4.16-35.67-4.16-31.47,45.79,4.2,49.95,9.29,11.28,27.28,104.06,10.49,54.11,29.38,12.49,29.38,12.49Z"/><path class="cls-3" d="m466.73,1033.03s-18.3,107.61-30.01,110.64c-11.71,3.04,129.99,72.81,182.08,79.52,0,0,31.3-54.17,66.37-70.55,0,0-211.21-71.67-218.44-119.61Z"/><path class="cls-3" d="m901.83,1032.03s19.23,107.4,30.85,110.31c11.62,2.91-127.76,74.2-179.2,81.48,0,0-31.53-53.83-66.37-69.84,0,0,208.09-73.94,214.72-121.95Z"/><rect class="cls-4" x="1337.16" y="1341.28" width="1250.81" height="1249.24"/><path class="cls-16" d="m2160.55,2198.22s1.79,157.27,22.74,172.66c20.95,15.39,102.43,57.15,102.43,57.15l11.64-4.4s-6.98-4.4,11.64,13.19c18.62,17.58,74.49,26.38,74.49,26.38l104.76,52.75s65.18,32.97,65.18,46.16v13.19h-1150l107.08-85.73,81.48-17.58s27.94-30.77,41.9-26.38l13.97,4.4,100.1-63.25s27.94-29.07,25.61-73.03c-2.33-43.96-2.33-115.51-2.33-115.51h389.31Z"/><path class="cls-19" d="m1717.7,1984.01s-23.81-65.34-22.09-93.51c8.31-135.6-15.83-135.18-19.4-146.67-24.94-80.25-.23-166.48,58.19-210.32,59.11-44.35,71.75-22.08,71.75-22.08,65.33-56.5,306.35-49.01,325.91,26.38,9.65,37.22,31.82-26.43,67.51,0,3.98,2.95,0,19.78,0,19.78,0,0,71.96,17.2,47.44,166.87-24.94,152.21-5.53,182.59-22.17,190.95-16.63,8.36-27.6,42.23-27.6,42.23,0,0-4.66-265.88-79.15-263.77-74.49,2.11-129.09,39.72-309.61,0-39.57-8.71-111.74,237.39-90.79,290.15Z"/><path class="cls-2" d="m1715.38,2080.73s-2.33,129.69,118.72,206.62c121.05,76.93,216.5,13.19,216.5,13.19,0,0,128.04-94.52,130.36-145.07,2.33-50.56,20.95-74.73,20.95-74.73,0,0,13.97,0,23.28-10.99,9.31-10.99,11.64-81.33,18.62-101.11,6.98-19.78,11.64-52.75-11.64-50.56-23.28,2.2-34.92,39.57-34.92,39.57,0,0,4.66-61.55-9.31-101.11-13.97-39.57,11.64-127.49-44.23-160.46-55.87-32.97-127.01-21.98-161.28-10.99-34.27,10.99-106.43,4.4-150.66-10.99-44.23-15.39-81.48,57.15-88.46,90.12-6.98,32.97-30.27,167.05-27.94,193.43l2.33,26.38s-16.3-70.34-30.26-74.73c-13.97-4.4-39.57-4.4-34.92,48.36,4.66,52.75,10.31,11.91,30.26,109.9,11.64,57.15,32.59,13.19,32.59,13.19Z"/><path class="cls-14" d="m2569.73,2588.89c4.66-46.16-135.73-102.09-186.23-127.53-50.51-25.43-88.46-48.36-109.41-57.15-20.95-8.79-65.85-23.51-65.85-23.51l-8.31,13.84s-42.24,93.2-239.25,93.2c-140.54,0-212.7-102.81-212.7-102.81-44.33,12.65-144.74,57.41-162.95,74.24-18.22,16.83-38.49,27.38-60.9,25.64-25.76-2-119.45,87.61-140.31,104.08h1185.93Z"/><path class="cls-19" d="m1701.16,1929.25s16.63,119,13.85,138.37c-2.77,19.37-11.08,77.49-2.77,130.07,8.31,52.58,27.71,113.46,52.65,138.37,24.94,24.91,63.73,55.35,63.73,55.35,0,0-2.77-8.3,0-13.84,2.77-5.53,2.77,22.14,11.08,33.21,8.31,11.07,52.65,13.84,52.65,13.84,0,0,80.36,27.67,110.84,2.77,0,0,11.08,11.07,27.71,0,16.63-11.07,105.29-33.21,121.92-94.09,0,0,41.56-96.86,44.33-166.04,2.77-69.18,0-91.32,0-91.32,0,0-2.77-121.77,8.31-141.14,11.08-19.37-5.54-19.37-5.54-19.37,0,0-13.85,63.65-13.85,88.56s-19.4,119-41.56,130.07c-22.17,11.07-73.2,38.62-121.92,66.42-19.4,11.07-105.29,5.53-127.46,0-38.49-9.61-36.02-41.51-83.13-55.35,0,0-74.81-19.37-77.58-41.51-2.77-22.14-22.17-138.37-22.17-188.18s-11.08,13.84-11.08,13.84Z"/><path class="cls-19" d="m1960.56,2094.54c-6.15,1.66-12.63,1.67-18.66-.39-15.28-5.21-43.94-10.87-74.48,3.36-38.33,17.86-33.25,49.81-80.36,41.51-47.1-8.3-41.56-8.3-41.56-8.3,0,0,11.08,33.21,36.02,44.28,24.94,11.07,122.14-18.75,138.54-24.91,30.48-11.44,80.36,0,80.36,0,0,0,69.27,30.98,110.84,25.45,41.56-5.53,63.73-44.28,63.73-44.28,0,0-52.65,30.44-80.36,16.6-27.71-13.84-44.33-53.49-74.81-56.25-21.23-1.93-45.11-.88-59.26,2.93Z"/><rect class="cls-4" x="3900.65" y="1341.28" width="1251.32" height="1249.24"/><path class="cls-22" d="m4736.33,2461.51c-144.13-51.03-289.89-49.28-435.18,0v-136.25c146.26-37.37,291.24-34.93,435.18,0v136.25Z"/><path class="cls-17" d="m4671.32,2207.81c-11.3-.06,5.53,141.55,32.35,180.04,28.03,40.23,208.11,91.39,295.97,119.94,49.39,16.05,70.38,82.73,70.38,82.73h-1101.46s50.42-57.48,69.15-70.38c19.72-13.58,147.07-39.4,185.01-46.87,9.08-1.79,17.77-5.19,25.54-10.21,1.82-1.18,3.6-2.4,5.35-3.68l76.43-55.79s23.98-28.82,21.98-72.41c-2-43.59,7.36-115.51,7.36-115.51l311.94-7.86Z"/><path class="cls-19" d="m4293.43,1991.23s-24.8-57.2-33.66-71.77c-8.85-14.57-5.24-83.88-10.49-115.34-2.03-12.18-23.93-158.56,29.2-204.37,53.13-45.81,84.11-58.3,84.11-58.3,0,0,2.21-18.74,50.91-18.74s7.09-31.23,86.55-18.74c79.46,12.49,94.96,12.49,94.96,12.49l17.71-2.08s64.19,24.98,59.77,52.05c-4.43,27.07,43.39,9.63,43.39,9.63l15.73,23.59s52.81-1.48,39.32,141.55c-13.11,138.93-15.1,194.67-7.86,196.6,17.09,4.57-40.37,24.87-40.37,24.87,0,0,7.35-250.42-63.49-248.41-70.83,2-122.75,37.63-294.4,0-37.63-8.25-91.3,227-71.38,276.97Z"/><path class="cls-2" d="m4287.63,2079.28s30.5,149.35,107.19,195.71c119.74,72.39,201.96,10.99,201.96,10.99,0,0,95.54-85.51,111.2-135.91,13.99-45.03,18.92-70.79,18.92-70.79,0,0,12.61,0,21.02-10.41s10.51-77.04,16.81-95.77c6.31-18.74,10.51-49.97-10.51-47.89-21.02,2.08-31.53,37.48-31.53,37.48,0,0,19.08-62.97,6.47-100.45-12.61-37.48-4.37-116.08-54.81-147.32-50.44-31.23-114.67-20.82-145.61-10.41-30.94,10.41-96.09,4.16-136.03-10.41-39.93-14.57-73.56,54.13-79.87,85.36-6.31,31.23-27.33,158.24-25.22,183.22l2.1,24.98s-14.71-66.63-27.32-70.79c-12.61-4.16-35.73-4.16-31.53,45.81,4.2,49.97,9.3,11.28,27.32,104.1,10.51,54.13,29.42,12.49,29.42,12.49Z"/><path class="cls-3" d="m4300.9,2326.26s-18.33,107.65-30.06,110.69c-11.73,3.04,130.21,72.84,182.39,79.55,0,0,31.35-54.19,66.48-70.58,0,0-211.57-71.7-218.8-119.66Z"/><path class="cls-3" d="m4736.72,2325.25s19.27,107.45,30.9,110.36c11.63,2.91-127.98,74.23-179.5,81.51,0,0-31.58-53.85-66.48-69.87,0,0,208.43-73.97,215.08-122Z"/><path class="cls-19" d="m4611.03,2176.35c-36.7-47.18-60.29-60.29-60.29-60.29,0,0-57.67-10.49-89.13,0-31.46,10.49-62.91,60.29-62.91,60.29,0,47.18-7.86,96.99-7.86,96.99,31.46,31.46,73.4,39.32,117.96,39.32s99.61-31.46,102.23-36.7c2.62-5.24,0-99.61,0-99.61Zm-26.21,65.53c-21.77,16.33-55.05,7.86-55.05,7.86-18.35-2.62-5.24-44.56-5.24-44.56-18.35,2.62-41.94,0-41.94,0,0,0,15.89,29.6-2.62,41.94-15.73,10.49-49.81,2.62-57.67-5.24-15.73-15.73-7.86-55.05-7.86-55.05,15.73-13.11,20.97-15.73,55.05-26.21,34.08-10.49,68.15,0,68.15,0,0,0,51.59,13.21,55.05,23.59,5.24,15.73,2.62,49.81-7.86,57.67Z"/><rect class="cls-4" x="3902.73" y="40.52" width="1249.24" height="1248.53"/><ellipse class="cls-5" cx="4509.23" cy="731.58" rx="292.94" ry="332.73"/><path class="cls-11" d="m4649.94,862.81s-56.72,200.95,18.2,268.78c15.57,14.1,69.91,32.56,69.91,32.56l4.07,15.43s-.46-22.93,13.99-7.93c14.45,15,57.81,22.5,57.81,22.5l81.3,45s50.59,28.12,50.59,39.37v11.25h-892.49l83.11-73.12,63.23-15s21.68-26.25,32.52-22.5l10.84,3.75,19.46-18.35s82.92-38.14,102.33-69.07c36.55-58.24,18.23-206.38,18.23-206.38l266.9-26.29Z"/><path class="cls-2" d="m4325.02,814s-28.35,48.64,92.14,160.46c10.78,10,35.02,40.49,46.61,44.93,42.3,16.22,65.3,5.3,88.97-1.72,18.94-5.62,44.48-35.34,44.48-35.34,0,0,100.27-77.01,102.07-116.27,1.81-39.26,14.16-52.06,14.16-52.06,0,0,2.74-5.2,12.83-.38,17.6,8.42,27.93-25.43,31.18-62.7,2.49-28.5-13.3-64.96-31.37-63.25-18.07,1.71-10.76,4.61-10.76,4.61-.23-2.02,1.46-35.83-5.32-62.23-10.27-40.02-9.22-89.19-52.58-114.8-43.36-25.61-83.93-71.57-110.53-63.03-26.59,8.54-97.24,57.91-131.56,45.96-34.33-11.95-57.08,46.51-68.65,69.99-14.21,28.82-23.49,129.74-21.68,150.22l1.81,20.49s-12.65-54.63-23.49-58.04c-10.84-3.41-30.71-3.41-27.1,37.56,3.61,40.97-6.95,14.22,23.49,85.35,17.82,41.65,25.29,10.24,25.29,10.24Z"/><path class="cls-5" d="m4668.41,469.86c-5.5-5.25-14.64-2.07-15.67,5.46-6.1,44.48-33.86,158.86-159.38,212.39-140.12,59.75-243.16,132.15-264.42,147.56-2.56,1.86-4,4.88-3.82,8.04,1.85,32.48,17.49,208.96,138.08,170.35,10.24-3.28,16.9,10.51,8.03,16.58-.22.15-.45.3-.67.45-6.17,4.09-5.25,13.53,1.62,16.29,1.84.74,3.81,1.41,5.87,1.96,8.1,2.14,9.32,13.08,1.99,17.14-25.98,14.4-69.89,26.26-124.95-6.83-90.61-54.45-144.26-198.58-137.59-291.47,26.32-366.42,265.58-470.98,266.18-471.3,17.78-9.62,161.21-52.34,226.97,3.7,2.21,1.88,5.13,2.69,7.98,2.11,21.82-4.39,81.1-28.29,194.55,128.1,8.37,11.53,14.15,24.73,22.21,36.48,30.49,44.46,104.88,187.93,28.25,450.33-15.13,51.8-49.55,96.14-96.62,122.59-31.78,17.86-41.29,5.51-76.83-12.46-1.72-.87-3.66-1.19-5.56-.92l-19.23,2.79c-10.65,1.54-15-13.2-5.21-17.67,43.18-19.72,92.46-46.65,103.3-70.8,19.66-43.78,90.5-293.64-95.1-470.87Z"/><path class="cls-5" d="m4705.1,1012.56s-24.04,20.82-76.91,25.62c0,0,65.7,1.6,86.53-12.81,20.83-14.41-9.61-12.81-9.61-12.81Z"/><path class="cls-5" d="m4740.08,1032.54s-24.04,20.82-76.91,25.62c0,0,65.7,1.6,86.53-12.81,20.83-14.41-9.61-12.81-9.61-12.81Z"/><path class="cls-5" d="m4313.98,937.81s2.6,31.68,37.02,72.09c0,0-48.06-44.79-52.86-69.66-4.79-24.86,15.84-2.43,15.84-2.43Z"/><path class="cls-5" d="m4345.16,1051.59s64.09,1.6,99.35-24.02c0,0-57.68,41.64-83.32,38.44-25.64-3.2-16.02-14.41-16.02-14.41Z"/><path class="cls-5" d="m4340.55,1044.32s72.11-14.41,83.32-48.04c0,0-8.01,30.43-94.54,41.64,0,0,14.42,6.41,11.22,6.41Z"/><path class="cls-5" d="m4252.49,804.63s-7.5,228.48,122.43,211c0,0-114.08,45.67-146.16-194.77-5-37.46,23.74-16.23,23.74-16.23Z"/><path class="cls-5" d="m4300.63,833.96s-30.29,226.59,100.73,222.17c0,0-118.08,34.05-125.97-208.39-1.23-37.77,25.24-13.78,25.24-13.78Z"/><path class="cls-5" d="m4246.91,805.25s-30.29,226.59,100.73,222.17c0,0-118.08,34.05-125.97-208.39-1.23-37.77,25.24-13.78,25.24-13.78Z"/><path class="cls-5" d="m4759.23,763.98s35.9,225.77-95.18,224.6c0,0,118.89,31.11,120.76-211.44.29-37.79-25.57-13.15-25.57-13.15Z"/><path class="cls-5" d="m4731.3,866.44s-35.44,225.84-159.79,184.36c0,0,103.51,66.21,180.06-163.98,11.93-35.86-20.28-20.39-20.28-20.39Z"/><path class="cls-5" d="m4800.3,933s-130.9,187.47-224.47,95.72c0,0,64.01,104.85,233.76-68.51,26.44-27.01-9.28-27.2-9.28-27.2Z"/><rect class="cls-4" x="2620.04" y="1341.28" width="1248.53" height="1248.53"/><path class="cls-10" d="m3366.84,2163.57s-56.69,200.95,18.19,268.78c15.56,14.1,69.87,32.56,69.87,32.56l4.07,15.43s-.46-22.93,13.98-7.93c14.45,15,57.78,22.5,57.78,22.5l81.25,45s50.56,28.12,50.56,39.37v11.25h-891.99l83.06-73.12,63.2-15s21.67-26.25,32.5-22.5l10.83,3.75,19.45-18.35s82.88-38.14,102.27-69.07c36.53-58.24,18.22-206.38,18.22-206.38l266.75-26.29Z"/><path class="cls-2" d="m3042.1,2114.76s-28.34,48.64,92.09,160.46c10.77,10,35,40.49,46.59,44.93,42.28,16.22,65.26,5.3,88.92-1.72,18.93-5.62,44.46-35.34,44.46-35.34,0,0,100.21-77.01,102.02-116.27,1.81-39.26,14.15-52.06,14.15-52.06,0,0,2.74-5.2,12.82-.38,17.59,8.42,27.92-25.43,31.16-62.7,2.48-28.5-13.29-64.96-31.35-63.25-18.06,1.71-10.75,4.61-10.75,4.61-.23-2.02,1.45-35.83-5.31-62.23-10.26-40.02-9.21-89.19-52.55-114.8-43.34-25.61-83.89-71.57-110.47-63.03-26.58,8.54-110.11-13.96-144.41-25.91-34.31-11.95-44.12,118.39-55.69,141.86-14.2,28.82-23.48,129.74-21.67,150.22l1.81,20.48s-12.64-54.63-23.47-58.04c-10.83-3.41-30.7-3.41-27.08,37.56,3.61,40.97-6.94,14.22,23.47,85.35,17.81,41.65,25.28,10.24,25.28,10.24Z"/><path class="cls-5" d="m3495.26,1809.51c0-50.24-18.18-85.06-36.94-107.7-22.44-36.03-55.27-62.25-91.84-80.53,37.41,9.88,51.36,20.93,51.36,20.93-24.49-23.13-66.03-34.4-98.77-39.86-45.85-14.26-94.27-18.63-129.48-15.46,40.59-14.37,70.94-12.1,70.94-12.1-37.85-4.03-73.08,7.01-93.34,15.35-18.74,3.85-33.29,9.99-44.57,16.98,16.12-26.03,29.29-31.08,29.29-31.08-15.56,2.59-31.1,22.34-42.47,40.74-20.65,17.96-24.59,37.08-24.59,37.08,0,0-4.87-1.67-12.84-2.35-16.1-3.22-50.26-8.36-66.18,1.93,0,0,24.83-4.03,46.21-1.12-17.06,2.83-38.41,11.96-58.09,36.35-12.55,10.98-33.73,31.85-38.06,50.92,0,0,8.33-9.52,18.02-18.68-1.51,3.31-2.84,6.79-3.94,10.46-5.52,4.87-9.9,11.57-10.33,20.71,0,0,3.13-5.47,8.07-11.62-1.37,6.71-2.2,13.87-2.56,21.41-5.43,13.06-9.5,31.99-8.01,58.87,0,0,.8-22.55,7.87-44.8.24,9.8,1.12,20.07,2.55,30.64-1.96,11.15-3.12,26.12-1.68,45.37,0,0,1.05-16.82,3.84-31.37,17.19,99.52,74.87,217.79,74.87,217.79,0,0-14.64-38.78,14.64-109.87,2.23-5.41,4.29-11.32,6.19-17.59,8.44,12.63,15.32,19.69,15.32,19.69-5.77-7.06-10.66-14.2-14.82-21.36,3.46-11.69,6.4-24.62,8.91-38.08,20.21,37.74,49.04,58.37,49.04,58.37-25.3-21.69-39.59-46.31-46.83-71.01,2.08-12.68,3.81-25.62,5.26-38.28,19.55,47.85,56.55,74.33,56.55,74.33-33.8-28.98-47.95-63.19-51.88-95.83,12.4,21.39,28.48,41.03,45.72,58.51,37.1,52.35,79.15,88.33,79.15,88.33-24.29-24.29-43.77-47.52-59.34-69.53,48.35,43.05,98.15,68.85,98.15,68.85-56.16-34.88-94.17-69.99-119.71-102.76-20.47-36.31-30.26-68.56-33.94-95.82,1.08.51,2.16,1.01,3.23,1.52,6.4,32.85,27.52,72.73,50.1,95.56,55.63,65.24,135.27,106.49,135.27,106.49-38.46-23.88-68.37-47.87-91.62-71.14-13.14-17.19-31.92-49.18-40.54-98.98,5.39,21.59,15.2,47,33.07,69.65,4.05,14.73,10.11,26.84,19.08,32.49,0,0-6.59-6.88-12.46-24.69,5.89,6.51,12.47,12.73,19.95,18.44,0,0-10.55-8.82-22.75-28.09-9.21-36.39,6.78,24.09,36.31,31.37,0,0-21.18-11.16-40.98-58.22-.86-8.08-1.4-17.11-1.48-27.15,1.31.81,2.61,1.63,3.9,2.44,25.7,71.54,103.85,141.63,167.77,178.57-43.21-29.68-74.98-58.98-98.26-86.75,2.54,2.24,5.15,4.44,7.92,6.55,0,0-16.09-13.44-31.5-43.44-10.56-48.59,8.93,35.63,43.82,44.23,0,0-24.32-12.84-45.2-68.93,2.92,2.13,5.77,4.25,8.59,6.37,10.96,26.13,25.98,53.16,43.35,60.97,8.76,13.55,18.71,23.9,29.46,26.55,0,0-22.98-12.11-43.45-64.3,8.03,6.68,15.51,13.19,22.46,19.48,41.95,68.73,96.07,130.18,96.07,130.18-33.83-41.91-57.12-78.24-73.16-108.47,32.23,32.04,47.61,54.16,47.61,54.16-4.52-8.6-10.04-17.26-16.35-25.91,3.15,2.49,2.1,1.84-.56-.75-12.58-17.11-25.03-26.1-39.59-65.17,16.51,15.19,33.28,31.75,50.06,49.77,27.06,58.54,70.41,116.85,87.32,138.62,1.06,4.67.97,7.57,2.72,3.48,6.18,7.85,5.34,6.92.23-.56,3.47-8.72,12.57-45.18,36.42-180.34,7.56-42.85,6.26-79.84-1.61-111.63,10.39,27.74,13.02,50.78,13.02,50.78Zm-400.03-85.56c3.08,3.48,2.35,1.12,2.55,4.65-3.07-1.73-2.46-.73-2.55-4.65Zm58.17,91.42c-4.4-9.08-9.65-24.07-12.36-46.85.73.4,1.45.8,2.18,1.19,1.39,12.1,4.28,28.24,10.19,45.66Zm-11.49-65.8c0,1.11.02,2.93.12,5.39-.77-.48-1.55-.96-2.3-1.43-.1-1.65-.18-3.34-.25-5.06.81.37,1.6.73,2.43,1.1Zm-24.7-11.51c4.99,2.47,10.74,5.15,17.27,8.14.08,1.42.18,2.84.28,4.27-19.5-11.97-17.2-9.61-17.56-12.41Zm39.19,85.57c3.99,10.27,9.08,20.79,15.57,31.04-29.73-35.84-44.36-69.16-51.06-96.68,5.19,2.63,10.3,5.28,15.32,7.96,2.84,23.65,8.66,46.65,20.17,57.69Zm23.3-18.39c-1.96-5.56-3.88-11.54-5.75-17.92,1.67,1,3.33,2.01,4.97,3.01.16,4.8.41,9.81.77,14.91Zm-.98-38.9c-.06,3.68-.08,7.79-.04,12.22-2.93-1.95-5.81-3.86-8.66-5.72-.95-3.79-1.88-7.73-2.78-11.79,3.69,1.69,7.51,3.44,11.49,5.29Zm-19.4-.45c-.57-2.99-1.1-6.05-1.6-9.18.9.41,1.8.82,2.72,1.23-.88,2.95-1.17,1.22,1.21,9.44-.78-.5-1.56-1.01-2.33-1.5Zm3.19,14.67c8.3,4.81-.8-2.65,18.84,41.78.57,4.53,1.25,9.03,2.06,13.42-7.65-14.22-15.29-32.5-20.9-55.2Zm61.17,10.81c.17,9.86,1.04,11.6-2.31-1.67.77.55,1.54,1.11,2.31,1.67Zm-23.21-14.76c2.28,1.1.04-1.59,4.26,17.09-1.75-5.92-3.16-11.62-4.26-17.09Zm10.92,6.08c2.91,2.01-.31-2.19,9.11,24.99-1.39-1.01-2.78-2.02-4.16-3.02-1.85-6.89-3.52-14.21-4.94-21.97Zm8.71,34.62c1.72,1.21,3.42,2.41,5.11,3.61.45,4.93,1.01,9.89,1.71,14.78-2.39-5.68-4.68-11.81-6.82-18.39Zm9.35-3.03c-.22-4.55-.34-9.32-.34-14.36,1.9,5.78,4.15,12.31,6.73,19.16-2.13-1.61-4.26-3.21-6.39-4.8Zm5.85-14.4c4.74,3.53,9.54,7.18,14.4,10.95,1.86,6.29,4.67,15.32,8.3,25.55-4.86-3.92-9.76-7.78-14.68-11.57-2.76-7.53-5.46-15.8-8.02-24.93Zm47.14,90.33c-7.7-6.86-20.97-21.96-33.77-51.9,4.92,3.79,9.68,7.55,14.27,11.27,5.38,13.71,11.97,28.26,19.5,40.63Zm-16.62-47.44c-2.6-7.65-5.11-16-7.5-25.15,2.1,1.67,4.2,3.37,6.32,5.08,18.7,40.87,26.67,41.13,1.18,20.07Zm41.49,37.16c-5.83-12.18-10.4-23.18-13.97-32.93.41.36.81.71,1.22,1.07,10.9,32,22.01,40.95,12.75,31.85Zm-7.82-44.69c-.28-1.08-.56-2.15-.83-3.25,15.83,11.63,30.01,23.89,42.7,36.45,11.39,37.83,24.18,38.47-41.87-33.2Zm85.64,105.38c10.14,11.93,20.24,24.4,30.22,37.46,0,0-12.51-17.86-33.23-44.62-5.43-13.25-9.15-24.24-11.65-32.81,50.84,63.06,68.87,125.69,73.5,145.01-28.92-42.9-47.24-78.13-58.85-105.05Z"/></g></g></g></svg>